#!OML:ASF H:\Not Pregnant\Project 1\Capture day 1\Session 1\non-pregnant.ASF
:FULLY-SPECIFIED
:DEGREES
513
root -5.14535 15.7449 36.6638 204.297 -72.3813 -197.719
lowerback -7.3195 2.74218 -7.71889
upperback -2.24307 4.09233 -4.48588
thorax 1.54881 1.94345 0.00591865
lowerneck 20.4258 -7.16033 -24.8174
upperneck -23.7136 -16.5953 53.2007
head -1.94129 -14.0936 38.9045
rclavicle -2.27531e-014 7.79236e-014
rhumerus -31.5214 12.8528 -98.5277
rradius 28.0246
rwrist 19.0944
rhand -15.1989 1.14242
rfingers 7.12502
rthumb 10.9729 -28.5508
lclavicle -2.27531e-014 7.79236e-014
lhumerus -38.3293 -15.4739 91.9059
lradius 33.3313
lwrist 41.2671
lhand -14.1626 -12.2531
lfingers 7.12502
lthumb 11.9723 17.3845
rfemur -23.9856 15.078 3.6325
rtibia 36.2834
rfoot -18.9717 -6.47724
rtoes -21.9765
lfemur -17.9464 18.2131 -33.0955
ltibia 23.8304
lfoot -18.4666 -17.1401
ltoes -5.41246
514
root -5.14591 15.7457 36.6592 204.268 -72.3708 -197.682
lowerback -7.34015 2.74409 -7.73996
upperback -2.25788 4.09713 -4.4633
thorax 1.54135 1.94644 0.0417267
lowerneck 20.3199 -7.15757 -24.5027
upperneck -23.5483 -16.7119 53.4153
head -1.8026 -14.2531 39.1882
rclavicle 4.77953e-014 -5.24792e-014
rhumerus -31.5337 12.7365 -98.4659
rradius 27.9967
rwrist 19.123
rhand -15.1993 1.04852
rfingers 7.12502
rthumb 10.9725 -28.6447
lclavicle 4.77953e-014 -5.24792e-014
lhumerus -38.3761 -15.5791 91.9867
lradius 33.3939
lwrist 41.4167
lhand -14.3813 -12.1816
lfingers 7.12502
lthumb 11.7615 17.4682
rfemur -23.9879 15.0573 3.65685
rtibia 36.2769
rfoot -18.9763 -6.43958
rtoes -21.9825
lfemur -17.9366 18.1643 -33.0654
ltibia 23.821
lfoot -18.47 -17.0703
ltoes -5.46472
515
root -5.14632 15.7466 36.6542 204.237 -72.3626 -197.643
lowerback -7.3613 2.74953 -7.76828
upperback -2.27164 4.10742 -4.43396
thorax 1.53393 1.95228 0.0889501
lowerneck 20.2255 -7.15384 -24.1738
upperneck -23.4009 -16.808 53.6128
head -1.69043 -14.396 39.4465
rclavicle -2.51602e-014 -3.49861e-014
rhumerus -31.5413 12.6079 -98.385
rradius 27.967
rwrist 19.149
rhand -15.1955 0.967099
rfingers 7.12502
rthumb 10.9762 -28.726
lclavicle -2.51602e-014 -3.49861e-014
lhumerus -38.4354 -15.7324 92.0928
lradius 33.5014
lwrist 41.6822
lhand -14.6331 -12.022
lfingers 7.12502
lthumb 11.5186 17.6415
rfemur -23.9914 15.0347 3.68519
rtibia 36.2736
rfoot -18.9824 -6.39783
rtoes -21.9737
lfemur -17.9278 18.1314 -33.0325
ltibia 23.8105
lfoot -18.4694 -17.0225
ltoes -5.5038
516
root -5.14669 15.7476 36.6487 204.204 -72.3589 -197.605
lowerback -7.37875 2.74747 -7.79822
upperback -2.28707 4.10734 -4.39915
thorax 1.52274 1.95322 0.141685
lowerneck 20.1255 -7.13847 -23.8552
upperneck -23.2401 -16.8835 53.7925
head -1.58716 -14.5212 39.6895
rclavicle 6.0117e-014 -4.37326e-014
rhumerus -31.5476 12.4816 -98.3039
rradius 27.9263
rwrist 19.1992
rhand -15.191 0.918606
rfingers 7.12502
rthumb 10.9805 -28.7742
lclavicle 6.0117e-014 -4.37326e-014
lhumerus -38.4944 -15.8706 92.1935
lradius 33.5677
lwrist 41.806
lhand -14.8466 -11.9125
lfingers 7.12502
lthumb 11.3127 17.7624
rfemur -23.9929 15.0137 3.71749
rtibia 36.2744
rfoot -18.9887 -6.36091
rtoes -21.9541
lfemur -17.9158 18.1082 -32.9961
ltibia 23.7975
lfoot -18.463 -16.9931
ltoes -5.52474
517
root -5.14705 15.7485 36.6429 204.188 -72.3577 -197.584
lowerback -7.39312 2.73971 -7.82667
upperback -2.3031 4.09912 -4.36655
thorax 1.50997 1.95011 0.190539
lowerneck 20.022 -7.11828 -23.5437
upperneck -23.0731 -16.9547 53.964
head -1.48339 -14.6418 39.9246
rclavicle 4.73271e-014 -1.90833e-014
rhumerus -31.552 12.3651 -98.2305
rradius 27.8782
rwrist 19.2624
rhand -15.1878 0.899162
rfingers 7.12502
rthumb 10.9836 -28.7935
lclavicle 4.73271e-014 -1.90833e-014
lhumerus -38.5515 -16.0032 92.2865
lradius 33.6057
lwrist 41.8495
lhand -15.0299 -11.8437
lfingers 7.12502
lthumb 11.1359 17.8408
rfemur -23.9939 14.9833 3.74827
rtibia 36.2802
rfoot -18.9963 -6.32216
rtoes -21.94
lfemur -17.9015 18.0955 -32.9642
ltibia 23.7816
lfoot -18.4575 -16.9777
ltoes -5.56086
518
root -5.1475 15.7494 36.6367 204.182 -72.3618 -197.581
lowerback -7.3999 2.71941 -7.85418
upperback -2.31959 4.0733 -4.33211
thorax 1.49348 1.93843 0.239073
lowerneck 19.9061 -7.08943 -23.2668
upperneck -22.8875 -17.0374 54.1297
head -1.35694 -14.7684 40.1733
rclavicle -4.71617e-014 1.74931e-014
rhumerus -31.554 12.2544 -98.163
rradius 27.8148
rwrist 19.3676
rhand -15.187 0.928797
rfingers 7.12502
rthumb 10.9844 -28.7638
lclavicle -4.71617e-014 1.74931e-014
lhumerus -38.5995 -16.092 92.3631
lradius 33.593
lwrist 41.7793
lhand -15.1655 -11.8611
lfingers 7.12502
lthumb 11.0051 17.8304
rfemur -23.9876 14.9481 3.77968
rtibia 36.2913
rfoot -19.0065 -6.28836
rtoes -21.9324
lfemur -17.8779 18.0889 -32.9335
ltibia 23.7623
lfoot -18.4528 -16.9731
ltoes -5.60089
